# AST/ASF file generated using VICON BodyLanguage
# -----------------------------------------------
:version 1.10
:name VICON
:units
  mass 1.0
  length 0.45
  angle deg
:documentation
   .ast/.asf automatically generated from VICON data using
   VICON BodyBuilder and BodyLanguage model FoxedUp or BRILLIANT.MOD
:root
   order TX TY TZ RX RY RZ
   axis XYZ
   position 0 0 0  
   orientation 0 0 0 
:bonedata
  begin
     id 1 
     name lhipjoint
     direction 0.660183 -0.676772 0.325788 
     length 2.75133 
     axis 0 0 0  XYZ
  end
  begin
     id 2 
     name lfemur
     direction 0.34202 -0.939693 0  
     length 7.70317  
     axis 0 0 20  XYZ
    dof rx ry rz
    limits (-160.0 20.0)
           (-70.0 70.0)
           (-60.0 70.0)
  end
  begin
     id 3 
     name ltibia
     direction 0.342105 -0.939662 0   
     length 7.18701   
     axis 0 0 20   XYZ
    dof rx
    limits (-10.0 170.0)
  end
  begin
     id 4 
     name lfoot
     direction 0.14163 -0.389126 0.910232   
     length 2.41719   
     axis -90 7.62852e-016 20   XYZ
    dof rx rz
    limits (-45.0 90.0)
           (-70.0 20.0)
  end
  begin
     id 5 
     name ltoes
     direction 1.53533e-011 -4.21926e-011 1   
     length 1.18611   
     axis -90 7.62852e-016 20   XYZ
    dof rx
    limits (-90.0 20.0)
  end
  begin
     id 6 
     name rhipjoint
     direction -0.6658 -0.67229 0.323631   
     length 2.76968  
     axis 0 0 0  XYZ 
  end
  begin
     id 7 
     name rfemur
     direction -0.34202 -0.939693 0   
     length 7.92547   
     axis 0 0 -20   XYZ
    dof rx ry rz
    limits (-160.0 20.0)
           (-70.0 70.0)
           (-70.0 60.0)
  end
  begin
     id 8 
     name rtibia
     direction -0.342022 -0.939692 0   
     length 7.22641   
     axis 0 0 -20   XYZ
    dof rx
    limits (-10.0 170.0)
 end
 begin
     id 9 
     name rfoot
     direction -0.105675 -0.29034 0.951071   
     length 2.48149  
     axis -90 -7.62852e-016 -20   XYZ
    dof rx rz
    limits (-45.0 90.0)
           (-20.0 70.0)
  end
  begin
     id 10 
     name rtoes
     direction -1.5349e-011 -4.21859e-011 1   
     length 1.23343   
     axis -90 -7.62852e-016 -20   XYZ
    dof rx
    limits (-90.0 20.0)
  end
  begin
     id 11 
     name lowerback
     direction 0.0104173 0.993624 -0.112266   
     length 2.00527   
     axis 0 0 0   XYZ
    dof rx ry rz
    limits (-20.0 45.0)
           (-30.0 30.0)
           (-30.0 30.0)
  end
  begin
     id 12 
     name upperback
     direction 0.00733149 0.999856 -0.0152913   
     length 2.01385   
     axis 0 0 0   XYZ
    dof rx ry rz
    limits (-20.0 45.0)
           (-30.0 30.0)
           (-30.0 30.0)
  end
  begin
     id 13 
     name thorax
     direction 0.0026304 0.999318 0.036841   
     length 2.03734   
     axis 0 0 0   XYZ
    dof rx ry rz
    limits (-20.0 45.0)
           (-30.0 30.0)
           (-30.0 30.0)
  end
  begin
     id 14 
     name lowerneck
     direction 0.0293154 0.998757 0.0403082   
     length 1.65303   
     axis 0 0 0   XYZ
    dof rx ry rz
    limits (-20.0 45.0)
           (-30.0 30.0)
           (-30.0 30.0)
  end
  begin
     id 15 
     name upperneck
     direction -0.0376619 0.998184 -0.0470083   
     length 1.60926   
     axis 0 0 0   XYZ
    dof rx ry rz
    limits (-20.0 45.0)
           (-30.0 30.0)
           (-30.0 30.0)
  end
  begin
     id 16
     name head
     direction -0.0170133 0.999635 -0.0209778  
     length 1.73625  
     axis 0 0 0   XYZ
    dof rx ry rz
    limits (-20.0 45.0)
           (-30.0 30.0)
           (-30.0 30.0)
  end
  begin
     id 17 
     name lclavicle
     direction 0.919857 0.39181 -0.0186333  
     length 3.75313  
     axis 0 0 0   XYZ
    dof ry rz
    limits (-20.0 10.0)
           (0.0 20.0)
  end
  begin
     id 18 
     name lhumerus
     direction 1 -4.48988e-011 1.44029e-027   
     length 5.49313   
     axis 180 -30 -90   XYZ
    dof rx ry rz
    limits (-60.0 90.0)
           (-90.0 90.0)
           (-90.0 90.0)
  end
  begin
     id 19
     name lradius
     direction 1 -4.48924e-011 7.46281e-027   
     length 3.29037   
     axis 180 -30 -90   XYZ
    dof rx
    limits (-10.0 170.0)
  end
  begin
     id 20
     name lwrist
     direction 1 -4.48955e-011 2.19879e-026   
     length 1.64519   
     axis -1.34358e-014 90 90   XYZ
    dof ry
    limits (-180.0 0.0)
 end
  begin
     id 21 
     name lhand
     direction 1 -4.48978e-011 4.39747e-026   
     length 0.729656   
     axis -2.80598e-014 90 90   XYZ
    dof rx rz
    limits (-90.0 90.0)
           (-45.0 45.0)
  end
  begin
     id 22 
     name lfingers
     direction 1 -4.49071e-011 8.79411e-026   
     length 0.588268   
     axis -5.61193e-014 90 90   XYZ
    dof rx
    limits (0.0 90.0)
  end
  begin
     id 23
     name lthumb
     direction 0.707107 -6.34817e-011 0.707107   
     length 0.844638   
     axis -90 45 -9.86923e-015   XYZ
    dof rx rz
    limits (-45.0 45.0)
           (-45.0 45.0)
  end
  begin
     id 24 
     name rclavicle
     direction -0.919898 0.388279 0.0550233   
     length 3.7171  
     axis 0 0 0   XYZ 
    dof ry rz
    limits (-10.0 20.0)
           (-20.0 0.0)
  end
  begin
     id 25 
     name rhumerus
     direction -1 -4.48968e-011 9.98372e-028  
     length 5.23684   
     axis 180 30 90   XYZ
    dof rx ry rz
    limits (-90.0 60.0)
           (-90.0 90.0)
           (-90.0 90.0)
  end
  begin
     id 26 
     name rradius
     direction -1 -4.48956e-011 1.01023e-026   
     length 3.38251   
     axis 180 30 90   XYZ
    dof rx
    limits (-10.0 170.0)
  end
  begin
     id 27 
     name rwrist
     direction -1 -4.4892e-011 2.19886e-026   
     length 1.69126   
     axis -1.34358e-014 -90 -90   XYZ
    dof ry
    limits (-180.0 0.0)
  end
  begin
     id 28
     name rhand
     direction -1 -4.49024e-011 4.39727e-026   
     length 0.691454   
     axis -2.80598e-014 -90 -90   XYZ
    dof rx rz
    limits (-90.0 90.0)
           (-45.0 45.0)
  end
  begin
     id 29
     name rfingers
     direction -1 -4.49097e-011 8.79388e-026   
     length 0.557468   
     axis -5.61193e-014 -90 -90   XYZ
    dof rx
    limits (0.0 90.0)
  end
  begin
     id 30
     name rthumb
     direction -0.707107 -6.34938e-011 0.707107   
     length 0.800416   
     axis -90 -45 9.86923e-015   XYZ
    dof rx rz
    limits (-45.0 45.0)
           (-45.0 45.0)
  end
:hierarchy
  begin
    root lhipjoint rhipjoint lowerback
    lhipjoint lfemur
    lfemur ltibia
    ltibia lfoot
    lfoot ltoes
    rhipjoint rfemur
    rfemur rtibia
    rtibia rfoot
    rfoot rtoes
    lowerback upperback
    upperback thorax
    thorax lowerneck lclavicle rclavicle
    lowerneck upperneck
    upperneck head
    lclavicle lhumerus
    lhumerus lradius
    lradius lwrist
    lwrist lhand lthumb
    lhand lfingers
    rclavicle rhumerus
    rhumerus rradius
    rradius rwrist
    rwrist rhand rthumb
    rhand rfingers
  end

#!OML:ASF H:\BabyWalks\Project 1\Capture day 1\Session 1\baby.ASF
:FULLY-SPECIFIED
:DEGREES
157
root -29.995 17.4341 -22.9596 -9.13216 78.0692 -17.5399
lowerback 18.1696 2.75232 -7.91097
upperback 8.6789 2.80981 -1.03416
thorax -1.08307 1.41352 2.83466
lowerneck -0.232103 1.55042 3.47362
upperneck -13.2058 2.46528 -0.286176
head -4.24636 1.18408 -0.801746
rclavicle -2.54444e-014 3.02153e-014
rhumerus -56.4536 28.1889 -94.863
rradius 54.9527
rwrist -6.15862
rhand -14.5115 -16.0921
rfingers 7.12502
rthumb 11.6358 -45.749
lclavicle -2.54444e-014 3.02153e-014
lhumerus -37.8059 -17.195 78.5043
lradius 50.0721
lwrist -4.54763
lhand 9.51064 8.46104
lfingers 7.12502
lthumb 34.6621 35.0954
rfemur -13.0864 5.67922 18.6042
rtibia 50.9083
rfoot -13.2113 13.119
rtoes -22.7634
lfemur -22.3729 -5.48873 -14.5924
ltibia 41.9692
lfoot -27.8035 -18.0561
ltoes 9.00948
158
root -29.9262 17.434 -22.9653 -8.25555 78.1303 -16.6231
lowerback 18.2796 2.70701 -8.16177
upperback 8.6979 2.70416 -1.12721
thorax -1.10831 1.35901 2.89361
lowerneck -0.180747 1.56609 3.50367
upperneck -13.3054 2.48935 -0.319223
head -4.29149 1.19548 -0.821072
rclavicle 3.18055e-014 -7.95139e-014
rhumerus -56.4463 28.0975 -94.8413
rradius 54.9981
rwrist -6.30034
rhand -14.7013 -16.0713
rfingers 7.12502
rthumb 11.4528 -45.7385
lclavicle 3.18055e-014 -7.95139e-014
lhumerus -37.3139 -17.5691 78.2547
lradius 50.2965
lwrist -4.68439
lhand 9.13206 8.25491
lfingers 7.12502
lthumb 34.3027 34.971
rfemur -14.1205 5.49775 18.0703
rtibia 52.6001
rfoot -12.7526 13.7244
rtoes -22.4343
lfemur -21.9592 -5.52536 -14.9328
ltibia 41.6824
lfoot -28.0007 -17.9799
ltoes 8.78159
159
root -29.8562 17.4342 -22.9692 -7.40108 78.2057 -15.7152
lowerback 18.393 2.6538 -8.40013
upperback 8.71948 2.58996 -1.21691
thorax -1.13066 1.3006 2.95095
lowerneck -0.133831 1.57756 3.53503
upperneck -13.3913 2.50808 -0.343075
head -4.33111 1.20377 -0.837159
rclavicle -2.70347e-014 5.56597e-015
rhumerus -56.4462 27.989 -94.8343
rradius 55.0191
rwrist -6.42617
rhand -14.9187 -16.0463
rfingers 7.12502
rthumb 11.2431 -45.725
lclavicle -2.70347e-014 5.56597e-015
lhumerus -36.8212 -17.9224 77.9865
lradius 50.5793
lwrist -4.75123
lhand 8.74129 8.14523
lfingers 7.12502
lthumb 33.9315 34.9442
rfemur -15.1128 5.29804 17.5659
rtibia 54.1482
rfoot -12.5227 14.1678
rtoes -22.2222
lfemur -21.5222 -5.57262 -15.2677
ltibia 41.3827
lfoot -28.1807 -17.9182
ltoes 8.60215
160
root -29.785 17.4348 -22.9712 -6.64301 78.2954 -14.8966
lowerback 18.5092 2.59035 -8.6127
upperback 8.74095 2.46605 -1.29853
thorax -1.15265 1.23796 3.00445
lowerneck -0.0954664 1.58568 3.56733
upperneck -13.4587 2.52258 -0.355382
head -4.36256 1.20942 -0.849025
rclavicle 3.10104e-014 1.11319e-014
rhumerus -56.452 27.8695 -94.8432
rradius 55.0109
rwrist -6.53295
rhand -15.1499 -16.0301
rfingers 7.12502
rthumb 11.0202 -45.7209
lclavicle 3.10104e-014 1.11319e-014
lhumerus -36.3283 -18.2353 77.6951
lradius 50.9051
lwrist -4.76459
lhand 8.34942 8.10551
lfingers 7.12502
lthumb 33.5592 34.986
rfemur -16.0684 5.07265 17.1116
rtibia 55.5428
rfoot -12.5085 14.4573
rtoes -22.0314
lfemur -21.0681 -5.63034 -15.5748
ltibia 41.0756
lfoot -28.3403 -17.8841
ltoes 8.50403
161
root -29.7127 17.4356 -22.9714 -6.01882 78.3851 -14.2103
lowerback 18.6235 2.51858 -8.79145
upperback 8.7605 2.33634 -1.36966
thorax -1.17437 1.17305 3.0516
lowerneck -0.0701488 1.59127 3.59162
upperneck -13.5032 2.53408 -0.349439
head -4.38347 1.21324 -0.852721
rclavicle 1.66979e-014 -5.56597e-015
rhumerus -56.4627 27.7445 -94.8664
rradius 54.9732
rwrist -6.61482
rhand -15.3776 -16.0223
rfingers 7.12502
rthumb 10.8005 -45.7246
lclavicle 1.66979e-014 -5.56597e-015
lhumerus -35.843 -18.486 77.3778
lradius 51.2779
lwrist -4.70971
lhand 7.96679 8.16079
lfingers 7.12502
lthumb 33.1955 35.1196
rfemur -16.9853 4.83895 16.72
rtibia 56.7538
rfoot -12.6473 14.6035
rtoes -22.0181
lfemur -20.5883 -5.69019 -15.8431
ltibia 40.7327
lfoot -28.4654 -17.8736
ltoes 8.50127
162
root -29.6389 17.4372 -22.9699 -5.54066 78.4659 -13.6764
lowerback 18.7275 2.44079 -8.93549
upperback 8.7753 2.20444 -1.42816
thorax -1.19524 1.10748 3.09367
lowerneck -0.0568887 1.59567 3.61078
upperneck -13.5262 2.54385 -0.331445
head -4.39439 1.21598 -0.8509
rclavicle -4.37326e-014 -3.18055e-015
rhumerus -56.4773 27.6211 -94.9019
rradius 54.9063
rwrist -6.66986
rhand -15.5869 -16.0278
rfingers 7.12502
rthumb 10.5986 -45.7405
lclavicle -4.37326e-014 -3.18055e-015
lhumerus -35.366 -18.6643 77.0384
lradius 51.6866
lwrist -4.58157
lhand 7.59738 8.28518
lfingers 7.12502
lthumb 32.8441 35.3182
rfemur -17.883 4.61131 16.3934
rtibia 57.7956
rfoot -12.8835 14.6533
rtoes -22.0763
lfemur -20.0998 -5.74637 -16.0661
ltibia 40.3846
lfoot -28.5684 -17.8792
ltoes 8.61186
163
root -29.5618 17.4478 -22.9671 -5.22975 78.5309 -13.3243
lowerback 18.8121 2.35844 -9.04177
upperback 8.78312 2.07333 -1.47056
thorax -1.21377 1.04251 3.13229
lowerneck -0.0541011 1.59982 3.62294
upperneck -13.5263 2.55252 -0.30516
head -4.39503 1.21819 -0.844517
rclavicle 3.81667e-014 -1.82882e-014
rhumerus -56.4957 27.5 -94.9424
rradius 54.8177
rwrist -6.7015
rhand -15.7564 -16.0545
rfingers 7.12502
rthumb 10.4351 -45.7755
lclavicle 3.81667e-014 -1.82882e-014
lhumerus -34.9014 -18.7607 76.6819
lradius 52.1197
lwrist -4.40143
lhand 7.23027 8.4364
lfingers 7.12502
lthumb 32.4949 35.5418
rfemur -18.7355 4.39061 16.1434
rtibia 58.6326
rfoot -13.1442 14.658
rtoes -22.0754
lfemur -19.5864 -5.79152 -16.2407
ltibia 40.0073
lfoot -28.6645 -17.9102
ltoes 8.80628
164
root -29.4848 17.4519 -22.9627 -5.07068 78.5752 -13.1459
lowerback 18.8743 2.27344 -9.11632
upperback 8.77944 1.94427 -1.49559
thorax -1.23376 0.978648 3.17184
lowerneck -0.0568502 1.60527 3.63171
upperneck -13.5077 2.56166 -0.27908
head -4.38773 1.2208 -0.83727
rclavicle -1.66979e-014 -4.29375e-014
rhumerus -56.5219 27.3874 -94.9872
rradius 54.7107
rwrist -6.70832
rhand -15.8735 -16.1064
rfingers 7.12502
rthumb 10.3222 -45.8331
lclavicle -1.66979e-014 -4.29375e-014
lhumerus -34.4544 -18.7725 76.3153
lradius 52.5652
lwrist -4.18304
lhand 6.85374 8.60522
lfingers 7.12502
lthumb 32.1365 35.7837
rfemur -19.6125 4.19995 15.9574
rtibia 59.3165
rfoot -13.3533 14.6722
rtoes -21.8044
lfemur -19.0969 -5.82354 -16.3627
ltibia 39.6323
lfoot -28.7569 -17.944
ltoes 9.02306
165
root -29.4062 17.4576 -22.9571 -5.02355 78.5968 -13.0987
lowerback 18.9184 2.1879 -9.16682
upperback 8.7639 1.81833 -1.50427
thorax -1.25804 0.916378 3.21516
lowerneck -0.0614144 1.61389 3.63465
upperneck -13.4726 2.57351 -0.2561
head -4.374 1.22515 -0.829873
rclavicle -1.19271e-014 3.81667e-014
rhumerus -56.5587 27.2875 -95.0353
rradius 54.59
rwrist -6.68881
rhand -15.9405 -16.1717
rfingers 7.12502
rthumb 10.2576 -45.9016
lclavicle -1.19271e-014 3.81667e-014
lhumerus -34.0278 -18.706 75.9462
lradius 53.0142
lwrist -3.94358
lhand 6.45301 8.74583
lfingers 7.12502
lthumb 31.7549 36.0006
rfemur -20.4834 4.04418 15.8271
rtibia 59.8156
rfoot -13.5173 14.7253
rtoes -21.3459
lfemur -18.6027 -5.84343 -16.4459
ltibia 39.231
lfoot -28.8404 -17.9754
ltoes 9.23143
166
root -29.3257 17.4653 -22.9505 -5.05099 78.5896 -13.1456
lowerback 18.941 2.10558 -9.20058
upperback 8.73582 1.69945 -1.49697
thorax -1.28621 0.857424 3.26515
lowerneck -0.0626786 1.62571 3.63233
upperneck -13.4256 2.58797 -0.24049
head -4.35644 1.23129 -0.824004
rclavicle 2.38542e-014 3.18055e-015
rhumerus -56.6103 27.2024 -95.0845
rradius 54.4623
rwrist -6.65027
rhand -15.9496 -16.252
rfingers 7.12502
rthumb 10.2488 -45.9824
lclavicle 2.38542e-014 3.18055e-015
lhumerus -33.6266 -18.568 75.5813
lradius 53.4692
lwrist -3.6909
lhand 6.04837 8.84718
lfingers 7.12502
lthumb 31.3694 36.1776
rfemur -21.355 3.93395 15.7429
rtibia 60.1485
rfoot -13.6591 14.8371
rtoes -20.7953
lfemur -18.1119 -5.85036 -16.4993
ltibia 38.827
lfoot -28.9328 -17.9932
ltoes 9.42378
167
root -29.2433 17.4749 -22.9429 -5.14184 78.5585 -13.2691
lowerback 18.954 2.02528 -9.21842
upperback 8.69453 1.58474 -1.47416
thorax -1.32466 0.800711 3.32207
lowerneck -0.0604834 1.64138 3.62482
upperneck -13.3641 2.60543 -0.235262
head -4.33408 1.23954 -0.820665
rclavicle 3.18055e-014 1.74931e-014
rhumerus -56.6814 27.1329 -95.1361
rradius 54.3296
rwrist -6.59214
rhand -15.9065 -16.3222
rfingers 7.12502
rthumb 10.2904 -46.0505
lclavicle 3.18055e-014 1.74931e-014
lhumerus -33.2559 -18.3681 75.2291
lradius 53.9262
lwrist -3.44919
lhand 5.63135 8.9091
lfingers 7.12502
lthumb 30.972 36.3159
rfemur -22.2115 3.86887 15.6979
rtibia 60.2948
rfoot -13.7743 15.021
rtoes -20.1668
lfemur -17.6014 -5.85357 -16.5285
ltibia 38.3797
lfoot -28.9769 -18.0045
ltoes 9.68472
168
root -29.1588 17.4866 -22.9343 -5.23878 78.5006 -13.4118
lowerback 18.9544 1.95 -9.23255
upperback 8.64021 1.47649 -1.43816
thorax -1.37183 0.747077 3.38985
lowerneck -0.052468 1.66296 3.6109
upperneck -13.2934 2.62908 -0.240153
head -4.30933 1.25152 -0.819769
rclavicle -1.11319e-014 -4.13472e-014
rhumerus -56.775 27.0829 -95.1923
rradius 54.1955
rwrist -6.5196
rhand -15.8136 -16.388
rfingers 7.12502
rthumb 10.38 -46.1118
lclavicle -1.11319e-014 -4.13472e-014
lhumerus -32.9193 -18.115 74.8933
lradius 54.3674
lwrist -3.26588
lhand 5.17738 8.83536
lfingers 7.12502
lthumb 30.5391 36.3236
rfemur -23.0528 3.85209 15.6789
rtibia 60.2575
rfoot -13.9256 15.2432
rtoes -19.6971
lfemur -17.066 -5.85414 -16.5459
ltibia 37.8798
lfoot -28.9773 -18.0029
ltoes 9.97196
169
root -29.0721 17.5003 -22.9251 -5.32248 78.4185 -13.5514
lowerback 18.9434 1.87844 -9.24203
upperback 8.57333 1.37314 -1.39063
thorax -1.42758 0.695881 3.46649
lowerneck -0.0391655 1.69112 3.58775
upperneck -13.2104 2.65984 -0.252736
head -4.28097 1.26771 -0.819977
rclavicle -4.77083e-015 -2.22639e-014
rhumerus -56.8952 27.0541 -95.2544
rradius 54.0614
rwrist -6.43454
rhand -15.6826 -16.4248
rfingers 7.12502
rthumb 10.5064 -46.1423
lclavicle -4.77083e-015 -2.22639e-014
lhumerus -32.6259 -17.8213 74.5811
lradius 54.825
lwrist -3.09952
lhand 4.73748 8.74603
lfingers 7.12502
lthumb 30.1195 36.3116
rfemur -23.8693 3.88308 15.6791
rtibia 60.0386
rfoot -14.1312 15.4802
rtoes -19.5465
lfemur -16.5016 -5.85464 -16.5579
ltibia 37.3248
lfoot -28.9283 -17.9931
ltoes 10.3046
170
root -28.9828 17.5163 -22.9149 -5.36861 78.316 -13.6592
lowerback 18.924 1.81115 -9.25094
upperback 8.49429 1.27458 -1.33405
thorax -1.49282 0.647158 3.55158
lowerneck -0.0224322 1.72491 3.55717
upperneck -13.1115 2.69638 -0.272564
head -4.24739 1.28735 -0.821318
rclavicle 1.51076e-014 -2.54444e-014
rhumerus -57.0454 27.0457 -95.327
rradius 53.9288
rwrist -6.34801
rhand -15.5152 -16.4495
rfingers 7.12502
rthumb 10.6678 -46.1586
lclavicle 1.51076e-014 -2.54444e-014
lhumerus -32.3786 -17.5022 74.2966
lradius 55.2941
lwrist -2.96757
lhand 4.31851 8.62137
lfingers 7.12502
lthumb 29.7197 36.259
rfemur -24.6517 3.95845 15.6909
rtibia 59.6437
rfoot -14.3881 15.7194
rtoes -19.4622
lfemur -15.8972 -5.87789 -16.5671
ltibia 36.708
lfoot -28.8228 -17.9832
ltoes 10.7135
